<svg id="Layer_1" data-name="Layer 1" xmlns="http://www.w3.org/2000/svg" width="99.81mm" height="103.89mm" viewBox="0 0 282.94 294.5"><defs><style>.cls-1{fill:#65bebc;}.cls-2{fill:#f0679a;}.cls-3{fill:#2f6073;}.cls-4{fill:#f9e5c9;}</style></defs><title>DownTown Logo</title><path class="cls-1" d="M31.61,110.41c0,67.34,44.46,121.93,99.31,121.93s99.31-54.59,99.31-121.93Z"/><path class="cls-1" d="M35.88,110.41c0,67.34,44.46,121.93,99.31,121.93s99.31-54.59,99.31-121.93Z"/><path class="cls-1" d="M35.88,214.8c0,9.58,44.46,17.35,99.31,17.35s99.31-7.77,99.31-17.35Z"/><path class="cls-1" d="M217.46,125.8c-20.88,0-37.81,15.82-37.81,35.34s16.93,35.33,37.81,35.33,37.81-15.82,37.81-35.33S238.34,125.8,217.46,125.8Zm-.89,60c-14.77,0-26.75-11.19-26.75-25s12-25,26.75-25,26.76,11.19,26.76,25S231.35,185.81,216.57,185.81Z"/><path class="cls-1" d="M118.93,63.06c-8.71,12.1-7.76,28.26-4.3,32.31,1,1.38-14.29-21.27-4.31-31.94,10-11.44,4.18-33.58,4.31-32.31C114.91,33.78,127.79,51.53,118.93,63.06Z"/><path class="cls-1" d="M151.81,49.84c-8.72,17-7.76,39.81-4.31,45.52,1,1.93-14.28-30-4.3-45,10-16.12,4.17-47.29,4.3-45.51C147.79,8.59,160.67,33.59,151.81,49.84Z"/><path class="cls-1" d="M35.24,110.22c0,67.34,44.47,121.93,99.32,121.93s99.31-54.59,99.31-121.93Z"/><path class="cls-1" d="M39.51,110.22c0,67.34,44.47,121.93,99.32,121.93s99.31-54.59,99.31-121.93Z"/><path class="cls-1" d="M39.51,214.61C39.51,224.2,84,232,138.83,232s99.31-7.77,99.31-17.36Z"/><path class="cls-1" d="M221.09,125.62c-20.88,0-37.81,15.82-37.81,35.33s16.93,35.34,37.81,35.34S258.9,180.47,258.9,161,242,125.62,221.09,125.62Zm-.88,60c-14.78,0-26.76-11.2-26.76-25s12-25,26.76-25,26.76,11.2,26.76,25S235,185.63,220.21,185.63Z"/><path class="cls-1" d="M122.57,62.87c-8.72,12.1-7.76,28.27-4.31,32.32,1,1.38-14.28-21.28-4.31-31.95,10-11.44,4.18-33.57,4.31-32.31C118.54,33.59,131.43,51.34,122.57,62.87Z"/><path class="cls-1" d="M155.45,49.65c-8.72,17.05-7.77,39.82-4.31,45.52,1,1.94-14.29-30-4.31-45,10-16.12,4.18-47.3,4.31-45.52C151.42,8.41,164.3,33.41,155.45,49.65Z"/><path class="cls-2" d="M37.06,105.82c0,67.34,44.46,121.93,99.31,121.93s99.32-54.59,99.32-121.93Z"/><path class="cls-2" d="M41.33,105.82c0,67.34,44.46,121.93,99.31,121.93S240,173.16,240,105.82Z"/><path class="cls-2" d="M41.33,210.21c0,9.59,44.46,17.36,99.31,17.36S240,219.8,240,210.21Z"/><path class="cls-2" d="M222.91,121.22c-20.88,0-37.81,15.82-37.81,35.33s16.93,35.34,37.81,35.34,37.81-15.82,37.81-35.34S243.79,121.22,222.91,121.22Zm-.88,60c-14.78,0-26.76-11.19-26.76-25s12-25,26.76-25,26.75,11.2,26.75,25S236.8,181.22,222,181.22Z"/><path class="cls-2" d="M124.39,58.47c-8.72,12.1-7.77,28.27-4.31,32.32,1,1.37-14.29-21.28-4.31-31.95,10-11.44,4.18-33.57,4.31-32.31C120.36,29.19,133.24,46.94,124.39,58.47Z"/><path class="cls-2" d="M157.26,45.25c-8.71,17-7.76,39.81-4.3,45.52,1,1.94-14.29-30-4.31-45,10-16.11,4.18-47.29,4.31-45.51C153.24,4,166.12,29,157.26,45.25Z"/><path class="cls-2" d="M40.69,105.64C40.69,173,85.16,227.57,140,227.57S239.32,173,239.32,105.64Z"/><path class="cls-2" d="M45,105.64C45,173,89.43,227.57,144.28,227.57S243.59,173,243.59,105.64Z"/><path class="cls-2" d="M45,210c0,9.58,44.47,17.35,99.32,17.35s99.31-7.77,99.31-17.35Z"/><path class="cls-2" d="M226.54,121c-20.88,0-37.81,15.82-37.81,35.34s16.93,35.33,37.81,35.33,37.81-15.82,37.81-35.33S247.42,121,226.54,121Zm-.88,60c-14.78,0-26.76-11.2-26.76-25s12-25,26.76-25,26.76,11.19,26.76,25S240.44,181,225.66,181Z"/><path class="cls-2" d="M128,58.29c-8.72,12.1-7.76,28.26-4.31,32.31,1,1.38-14.28-21.27-4.31-31.94,10-11.44,4.18-33.58,4.31-32.32C124,29,136.88,46.75,128,58.29Z"/><path class="cls-2" d="M160.9,45.07c-8.72,17-7.77,39.81-4.31,45.51,1,1.94-14.28-30-4.31-45,10-16.12,4.18-47.3,4.31-45.52C156.87,3.82,169.76,28.82,160.9,45.07Z"/><path class="cls-3" d="M36,253.43l-2.62,26.86a10.08,10.08,0,0,1-3.89,6.88,12.22,12.22,0,0,1-8,2.87H5.67l4.18-42.15H7.09l.42-4.21H26a10.26,10.26,0,0,1,7.47,2.86A8,8,0,0,1,36,253.43Zm-9.27-1.2a3.52,3.52,0,0,0-1.1-3,4.63,4.63,0,0,0-3.36-1.29h-3l-3.75,38h3A5.41,5.41,0,0,0,22,284.6a4.61,4.61,0,0,0,1.77-3.06Z"/><path class="cls-3" d="M63.72,267,62.3,281.1c-.23,2.48-1.65,4.59-4.24,6.33A15.92,15.92,0,0,1,49,290H47.58a14.57,14.57,0,0,1-8.28-2.27A6.77,6.77,0,0,1,36,281.1L37.38,267q.43-4.15,4.68-6.67a16.37,16.37,0,0,1,8.63-2.27h1.49a14.45,14.45,0,0,1,8.21,2.27A6.85,6.85,0,0,1,63.72,267Zm-9.49,0a4.64,4.64,0,0,0-.74-3.46,3.07,3.07,0,0,0-2.51-1.2,3.85,3.85,0,0,0-2.69,1.13A5.69,5.69,0,0,0,46.8,267L45.46,281.1a4.54,4.54,0,0,0,.77,3.4,3.21,3.21,0,0,0,2.48,1.32,3.59,3.59,0,0,0,2.73-1.16,5.55,5.55,0,0,0,1.45-3.56Z"/><path class="cls-3" d="M113.27,285.82l-.42,4.22H78.73c-4,0-7-.72-9.21-2.14a6.88,6.88,0,0,1-3.25-7l1.84-18.62H65.35l.35-4.22H78.09l-2.41,23.84a3.57,3.57,0,0,0,.71,2.58,3.38,3.38,0,0,0,2.76,1.32H83l2.7-27.74h9.48l-2.34,23.84a3.61,3.61,0,0,0,.71,2.58,3.38,3.38,0,0,0,2.76,1.32h3.83l2.76-27.74h9.48l-2.76,27.74Z"/><path class="cls-3" d="M147.46,285.82,147,290h-4a9.63,9.63,0,0,1-5.66-1.51,5.12,5.12,0,0,1-2.12-4.91l1.7-17.42a3.57,3.57,0,0,0-.71-2.58,3.38,3.38,0,0,0-2.76-1.32h-3.82L126.86,290h-9.48l2.76-27.74h-2.69l.42-4.22h16c3.92,0,7,.7,9.13,2.08a7,7,0,0,1,3.26,7l-1.49,15.92c-.09,1.21.08,2,.5,2.32A3.78,3.78,0,0,0,147.46,285.82Z"/><path class="cls-3" d="M176.49,243.74l-.43,4.15h-6.79L165.16,290h-9.48l4.17-42.15h-6.79l.42-4.15Z"/><path class="cls-3" d="M197.44,267,196,281.1q-.36,3.72-4.25,6.33a15.91,15.91,0,0,1-9.06,2.61H181.3a14.61,14.61,0,0,1-8.28-2.27,6.78,6.78,0,0,1-3.33-6.67L171.11,267q.42-4.15,4.67-6.67a16.38,16.38,0,0,1,8.64-2.27h1.48a14.5,14.5,0,0,1,8.22,2.27A6.82,6.82,0,0,1,197.44,267ZM188,267a4.68,4.68,0,0,0-.75-3.46,3,3,0,0,0-2.51-1.2,3.85,3.85,0,0,0-2.69,1.13,5.75,5.75,0,0,0-1.49,3.53l-1.34,14.08a4.59,4.59,0,0,0,.78,3.4,3.2,3.2,0,0,0,2.47,1.32,3.57,3.57,0,0,0,2.73-1.16,5.5,5.5,0,0,0,1.45-3.56Z"/><path class="cls-3" d="M247,285.82l-.43,4.22H212.45c-4,0-7-.72-9.2-2.14a6.89,6.89,0,0,1-3.26-7l1.84-18.62h-2.76l.35-4.22h12.39l-2.4,23.84a3.56,3.56,0,0,0,.7,2.58,3.39,3.39,0,0,0,2.77,1.32h3.89l2.69-27.74h9.48l-2.33,23.84a3.52,3.52,0,0,0,.71,2.58,3.36,3.36,0,0,0,2.76,1.32h3.82l2.76-27.74h9.49l-2.76,27.74Z"/><path class="cls-3" d="M281.19,285.82l-.43,4.22h-4a9.61,9.61,0,0,1-5.66-1.51,5.11,5.11,0,0,1-2.13-4.91l1.7-17.42a3.57,3.57,0,0,0-.71-2.58,3.38,3.38,0,0,0-2.76-1.32h-3.82L260.59,290H251.1l2.76-27.74h-2.69l.43-4.22h16c3.91,0,7,.7,9.13,2.08a7,7,0,0,1,3.25,7l-1.48,15.92c-.1,1.21.07,2,.49,2.32A3.85,3.85,0,0,0,281.19,285.82Z"/><path class="cls-4" d="M33.55,253.43l-2.61,26.86a10.13,10.13,0,0,1-3.9,6.88A12.2,12.2,0,0,1,19,290H3.26l4.17-42.15H4.67l.43-4.21H23.57A10.26,10.26,0,0,1,31,246.54,8,8,0,0,1,33.55,253.43Zm-9.27-1.2a3.49,3.49,0,0,0-1.1-3,4.62,4.62,0,0,0-3.36-1.29h-3l-3.75,38h3a5.45,5.45,0,0,0,3.54-1.28,4.61,4.61,0,0,0,1.77-3.06Z"/><path class="cls-4" d="M61.3,267,59.89,281.1c-.24,2.48-1.65,4.59-4.25,6.33A15.91,15.91,0,0,1,46.58,290H45.16a14.61,14.61,0,0,1-8.28-2.27,6.78,6.78,0,0,1-3.33-6.67L35,267q.42-4.15,4.67-6.67a16.38,16.38,0,0,1,8.64-2.27h1.48A14.5,14.5,0,0,1,58,260.35,6.82,6.82,0,0,1,61.3,267Zm-9.48,0a4.68,4.68,0,0,0-.75-3.46,3,3,0,0,0-2.51-1.2,3.85,3.85,0,0,0-2.69,1.13A5.75,5.75,0,0,0,44.38,267L43,281.1a4.59,4.59,0,0,0,.78,3.4,3.21,3.21,0,0,0,2.48,1.32A3.55,3.55,0,0,0,49,284.66a5.5,5.5,0,0,0,1.45-3.56Z"/><path class="cls-4" d="M110.86,285.82l-.43,4.22H76.31c-4,0-7-.72-9.2-2.14a6.89,6.89,0,0,1-3.26-7l1.84-18.62H62.93l.36-4.22H75.67l-2.4,23.84A3.52,3.52,0,0,0,74,284.5a3.36,3.36,0,0,0,2.76,1.32h3.89l2.69-27.74h9.49l-2.34,23.84a3.57,3.57,0,0,0,.71,2.58,3.38,3.38,0,0,0,2.76,1.32h3.82l2.76-27.74H110l-2.76,27.74Z"/><path class="cls-4" d="M145.05,285.82l-.42,4.22h-4a9.61,9.61,0,0,1-5.66-1.51,5.11,5.11,0,0,1-2.13-4.91l1.7-17.42a3.52,3.52,0,0,0-.71-2.58A3.36,3.36,0,0,0,131,262.3h-3.82L124.45,290H115l2.76-27.74H115l.43-4.22h16c3.91,0,7,.7,9.13,2.08a7,7,0,0,1,3.26,7l-1.49,15.92c-.1,1.21.07,2,.5,2.32A3.78,3.78,0,0,0,145.05,285.82Z"/><path class="cls-4" d="M174.07,243.74l-.42,4.15h-6.8L162.75,290h-9.49l4.18-42.15h-6.8l.43-4.15Z"/><path class="cls-4" d="M195,267l-1.42,14.08q-.35,3.72-4.25,6.33A15.86,15.86,0,0,1,180.3,290h-1.41a14.63,14.63,0,0,1-8.29-2.27,6.76,6.76,0,0,1-3.32-6.67L168.69,267c.29-2.77,1.84-5,4.68-6.67a16.37,16.37,0,0,1,8.63-2.27h1.49a14.45,14.45,0,0,1,8.21,2.27A6.85,6.85,0,0,1,195,267Zm-9.49,0a4.68,4.68,0,0,0-.74-3.46,3.07,3.07,0,0,0-2.51-1.2,3.87,3.87,0,0,0-2.7,1.13,5.74,5.74,0,0,0-1.48,3.53l-1.35,14.08a4.59,4.59,0,0,0,.78,3.4,3.21,3.21,0,0,0,2.48,1.32,3.59,3.59,0,0,0,2.73-1.16,5.61,5.61,0,0,0,1.45-3.56Z"/><path class="cls-4" d="M244.58,285.82l-.42,4.22H210c-4,0-7-.72-9.21-2.14a6.88,6.88,0,0,1-3.25-7l1.84-18.62h-2.76l.35-4.22H209.4L207,281.92a3.57,3.57,0,0,0,.71,2.58,3.38,3.38,0,0,0,2.76,1.32h3.89L217,258.08h9.49l-2.34,23.84a3.57,3.57,0,0,0,.71,2.58,3.38,3.38,0,0,0,2.76,1.32h3.83l2.76-27.74h9.48L241,285.82Z"/><path class="cls-4" d="M278.77,285.82l-.42,4.22h-4a9.63,9.63,0,0,1-5.66-1.51,5.1,5.1,0,0,1-2.12-4.91l1.7-17.42a3.61,3.61,0,0,0-.71-2.58,3.38,3.38,0,0,0-2.76-1.32h-3.83L258.17,290h-9.48l2.76-27.74h-2.69l.42-4.22h16c3.92,0,7,.7,9.13,2.08a7,7,0,0,1,3.26,7l-1.49,15.92c-.09,1.21.07,2,.5,2.32A3.78,3.78,0,0,0,278.77,285.82Z"/></svg>