<?xml version="1.0" standalone="no"?>
<!DOCTYPE svg PUBLIC "-//W3C//DTD SVG 20010904//EN"
 "http://www.w3.org/TR/2001/REC-SVG-20010904/DTD/svg10.dtd">
<svg version="1.0" xmlns="http://www.w3.org/2000/svg"
 width="582.000000pt" height="582.000000pt" viewBox="0 0 582.000000 582.000000"
 preserveAspectRatio="xMidYMid meet">
<metadata>
Created by potrace 1.11, written by Peter Selinger 2001-2013
</metadata>
<g transform="translate(0.000000,582.000000) scale(0.100000,-0.100000)"
fill="#000000" stroke="none">
<path d="M3042 5745 c7 -11 15 -92 23 -205 5 -82 3 -80 -40 30 -25 65 -25 65
-20 20 18 -161 24 -260 15 -260 -3 0 -21 48 -40 108 -19 59 -42 127 -52 152
l-18 45 6 -50 c32 -267 23 -584 -21 -760 -9 -33 -17 -69 -20 -80 -4 -19 -25
-73 -49 -125 -6 -14 -25 -50 -42 -80 -46 -80 -61 -132 -73 -242 -9 -88 -3
-214 13 -294 2 -12 7 -39 10 -60 8 -50 74 -287 93 -336 8 -21 19 -38 25 -38 5
0 6 5 2 12 -4 6 -8 32 -10 57 -2 25 -4 46 -4 46 -1 0 -3 42 -4 93 -1 94 7 120
17 55 10 -57 80 -273 90 -273 4 0 6 4 3 8 -4 7 -15 117 -18 182 -3 57 8 87 15
44 5 -31 38 -124 44 -124 3 0 2 19 -2 43 -14 86 -17 257 -4 257 7 0 10 -2 7
-6 -9 -9 82 -298 98 -313 4 -3 4 3 0 13 -13 36 -20 130 -20 256 0 137 12 271
31 355 10 45 11 48 16 75 22 99 54 188 117 325 41 89 50 111 55 140 2 11 7 34
11 50 13 55 12 269 -1 345 -17 98 -32 167 -45 210 -6 19 -13 42 -15 50 -3 16
-63 196 -72 220 -4 8 -7 18 -7 22 -1 4 -7 13 -15 20 -8 7 -11 8 -8 2 9 -16 16
-72 22 -183 4 -52 6 -97 7 -100 4 -37 -7 -23 -23 29 -11 36 -21 72 -24 80 -18
61 -64 182 -70 188 -5 4 -6 3 -3 -3z"/>
<path d="M2225 5095 c15 -59 29 -232 18 -221 -4 4 -15 26 -24 49 -16 41 -47
68 -35 31 5 -18 15 -99 20 -171 1 -18 -1 -30 -6 -27 -4 3 -8 11 -8 19 0 7 -23
60 -51 117 -49 102 -50 102 -44 53 40 -318 13 -519 -91 -667 -81 -116 -91
-133 -103 -170 -39 -120 -5 -320 89 -522 42 -90 55 -108 39 -53 -13 45 -20
197 -8 197 5 0 9 -7 9 -15 0 -8 4 -23 9 -33 6 -9 24 -50 42 -89 18 -40 36 -73
41 -73 5 0 6 5 3 10 -15 24 -28 200 -15 200 4 0 15 -20 24 -45 10 -25 22 -45
28 -45 6 0 7 8 3 18 -4 9 -9 56 -12 105 -3 65 -1 87 8 87 7 0 10 -3 7 -6 -11
-10 79 -214 94 -214 5 0 3 10 -3 23 -14 24 -18 245 -7 307 14 72 38 157 59
210 25 60 85 168 106 188 19 19 50 93 61 148 19 92 -1 245 -46 357 -7 16 -12
30 -12 32 0 10 -101 215 -106 215 -3 0 -3 -9 1 -19 3 -11 8 -29 10 -41 6 -33
15 -187 9 -169 -8 28 -115 235 -109 214z"/>
<path d="M139 3162 c-1 -4 -1 -30 0 -58 1 -43 -1 -51 -16 -51 -10 0 -42 -1
-71 -2 l-53 -1 6 -147 c3 -82 8 -168 10 -193 4 -41 7 -63 19 -155 3 -16 7 -46
9 -66 6 -43 18 -116 24 -144 2 -11 6 -29 8 -40 9 -49 18 -86 40 -170 31 -116
62 -222 69 -233 3 -5 7 -19 10 -33 6 -31 87 -235 127 -319 80 -167 103 -209
242 -435 6 -11 14 -22 17 -25 3 -3 27 -35 53 -72 26 -36 53 -72 60 -80 7 -7
19 -22 27 -34 34 -49 112 -134 212 -233 60 -58 108 -108 108 -111 0 -3 -174
-5 -388 -4 -213 1 -392 -1 -398 -3 -15 -5 -7 -36 14 -60 47 -52 47 -52 -5 -51
-113 2 -153 -4 -153 -23 0 -30 72 -91 154 -131 44 -21 86 -38 93 -38 7 0 21
-4 31 -9 26 -15 181 -56 277 -75 11 -3 54 -11 95 -19 68 -14 202 -37 240 -42
8 -1 40 -5 70 -9 30 -4 71 -9 90 -11 137 -18 399 -42 540 -51 337 -21 584 -29
905 -28 340 1 674 11 920 29 39 2 111 7 160 11 50 3 106 8 125 10 19 2 62 6
94 9 32 2 75 7 95 9 20 3 61 8 91 11 30 4 67 8 81 10 14 3 41 7 60 9 35 5 137
21 199 31 173 29 426 93 515 130 113 47 205 108 205 135 0 5 21 20 46 35 64
37 104 81 104 113 0 6 -220 10 -587 11 -324 0 -591 0 -596 1 -4 0 23 26 60 57
106 89 120 102 218 200 l92 93 44 -6 c102 -12 307 -2 416 20 75 16 198 59 220
77 7 6 13 8 13 5 0 -4 13 2 29 13 16 12 32 21 35 21 13 0 79 50 174 133 31 26
74 62 96 79 104 80 247 298 270 409 2 8 6 21 9 29 29 79 31 299 2 415 -1 6 -3
13 -4 17 -8 37 -78 197 -91 208 -3 3 -11 17 -19 33 -8 15 -18 27 -23 27 -4 0
-8 5 -8 10 0 6 -8 18 -17 28 -10 10 -32 34 -49 53 -40 44 -111 109 -120 109
-3 0 -19 11 -36 25 -16 14 -36 25 -44 25 -8 0 -14 4 -14 8 0 5 -22 19 -49 31
-53 26 -51 17 -37 131 3 25 8 116 12 203 l6 157 -2581 0 c-1420 -1 -2582 -4
-2582 -8z m5041 -1021 c0 -5 6 -16 13 -23 29 -31 75 -145 93 -233 10 -48 4
-185 -11 -240 -14 -53 -60 -161 -75 -175 -3 -3 -16 -21 -29 -41 -34 -51 -106
-91 -218 -123 -71 -19 -161 -28 -169 -15 -2 5 6 25 19 46 13 21 37 63 54 93
72 132 111 205 112 210 0 3 16 40 35 83 20 43 59 144 87 225 71 204 70 202 80
202 5 0 9 -4 9 -9z"/>
</g>
</svg>
